<?xml version="1.0" standalone="no"?>
<!DOCTYPE svg PUBLIC "-//W3C//DTD SVG 20010904//EN"
 "http://www.w3.org/TR/2001/REC-SVG-20010904/DTD/svg10.dtd">
<svg version="1.0" xmlns="http://www.w3.org/2000/svg"
 width="666.000000pt" height="666.000000pt" viewBox="0 0 666.000000 666.000000"
 preserveAspectRatio="xMidYMid meet">
<metadata>
Created by potrace 1.14, written by Peter Selinger 2001-2017
</metadata>
<g transform="translate(0.000000,666.000000) scale(0.100000,-0.100000)"
fill="#000000" stroke="none">
<path d="M3563 4998 c-23 -46 -55 -130 -73 -188 -18 -58 -36 -109 -41 -113 -4
-5 -10 6 -14 25 -11 48 -61 208 -75 240 -7 15 -18 29 -24 31 -18 7 -76 -20
-77 -35 0 -7 -2 -21 -4 -31 -5 -26 24 -106 78 -214 25 -51 43 -93 39 -93 -4
-1 -43 -3 -87 -6 -149 -9 -213 -23 -368 -81 -57 -21 -72 -23 -95 -14 -22 9
-37 8 -71 -4 -24 -8 -47 -13 -51 -10 -5 3 -11 1 -15 -5 -4 -6 -17 -4 -36 5
-16 9 -33 13 -38 11 -5 -3 -20 -30 -35 -60 -15 -30 -37 -61 -50 -69 -52 -35
-181 -177 -222 -247 -69 -116 -98 -214 -98 -335 0 -86 3 -109 26 -162 l26 -63
-64 -64 c-69 -70 -81 -102 -70 -183 7 -56 40 -115 93 -166 46 -45 158 -112
225 -134 56 -18 57 -24 27 -109 -12 -32 -31 -122 -43 -199 l-23 -140 -94 1
c-66 1 -124 9 -196 28 -100 26 -133 26 -133 1 0 -24 63 -130 115 -195 171
-213 361 -355 560 -420 39 -12 77 -29 86 -36 8 -8 20 -14 25 -14 5 0 20 -7 32
-16 l23 -16 -23 -16 c-112 -74 -187 -155 -174 -187 5 -13 19 -15 84 -12 98 5
155 -9 215 -56 56 -43 63 -44 141 -16 36 12 83 20 120 20 58 -1 79 -5 172 -32
23 -7 48 -10 57 -6 15 6 15 11 1 59 -9 29 -26 77 -40 107 -13 29 -24 55 -24
56 0 6 65 23 200 54 160 36 175 39 261 47 l66 7 13 -32 c27 -66 111 -108 200
-99 62 7 187 70 259 132 66 56 125 125 218 258 86 121 88 125 60 134 -12 5
-25 7 -29 6 -3 -1 -31 -4 -62 -6 -61 -5 -89 11 -66 38 22 28 40 122 41 221 1
111 -11 198 -47 327 -13 48 -24 93 -24 101 0 7 16 29 35 48 37 38 90 143 99
199 3 19 8 49 11 65 10 59 -15 223 -45 296 -36 89 -118 233 -185 324 -147 202
-155 216 -155 284 0 74 -10 81 -76 56 -26 -10 -55 -14 -70 -11 -14 4 -53 35
-87 70 -79 80 -189 154 -295 196 -45 18 -85 36 -87 41 -5 7 39 22 145 49 206
53 229 67 215 130 -14 64 -104 51 -293 -44 -51 -25 -92 -44 -92 -41 0 9 35 81
53 107 21 32 97 215 97 234 0 17 -36 40 -76 48 -31 7 -32 6 -71 -76z"/>
</g>
</svg>
